<svg width="50" height="50" viewBox="0 0 50 50" fill="none" xmlns="http://www.w3.org/2000/svg">
<g clip-path="url(#clip0_20146_39613)">
<path d="M49.4732 34.2571L44.7357 29.5192L34.9354 39.3196C33.186 41.069 30.9902 42.2096 28.6053 42.6365L34.8496 48.8807C35.4214 49.4529 36.3491 49.4529 36.921 48.8807L49.4732 36.3289C50.0454 35.7566 50.0454 34.8289 49.4732 34.2571Z" fill="#00D487"/>
<path d="M42.8059 27.3059C44.4573 25.6549 44.4577 22.9682 42.8082 21.3161C42.8063 21.3142 42.8044 21.3123 42.8025 21.3104C42.3943 20.9026 41.9174 20.5883 41.3983 20.3781C41.8484 19.2394 41.9434 17.3137 40.4522 15.8222C40.4484 15.8184 40.4446 15.8142 40.4404 15.8103C40.0341 15.4067 39.5603 15.0955 39.0446 14.8864C39.4947 13.7485 39.5901 11.8225 38.0997 10.3317C38.0986 10.3305 38.0978 10.3298 38.097 10.329C37.6885 9.92045 37.2113 9.60535 36.6913 9.39516C37.1414 8.25648 37.2364 6.33043 35.7453 4.83889C35.7456 4.83889 35.7449 4.83889 35.7453 4.83889C35.7449 4.8385 35.7437 4.83774 35.7434 4.83736C34.0912 3.18521 31.4034 3.18521 29.7512 4.83736L26.9737 7.61446L28.394 9.03467C30.7606 11.4013 30.7606 15.2519 28.3943 17.6185C27.5978 18.4146 26.6194 18.9617 25.5528 19.2222C25.2976 20.2621 24.765 21.2478 23.9536 22.0588C23.1583 22.8542 22.1813 23.4008 21.1159 23.6618C20.8553 24.7268 20.3083 25.7042 19.5133 26.4991C18.718 27.2945 17.741 27.8411 16.6756 28.1021C16.415 29.1671 15.868 30.1445 15.073 30.9398C13.9267 32.0858 12.4024 32.7175 10.7811 32.7175C9.15986 32.7175 7.6355 32.0861 6.48919 30.9394L5.06897 29.5192L0.331497 34.2571C-0.240708 34.8293 -0.240708 35.7566 0.331497 36.3289L12.8834 48.8807C13.4556 49.4529 14.3829 49.4526 14.9551 48.8807L23.9403 39.896H26.4717C28.8864 39.896 31.1566 38.9553 32.864 37.2482L42.8059 27.3059Z" fill="#00D487"/>
<path d="M8.56095 28.8681C9.78699 30.0945 11.7752 30.0945 13.0013 28.8681C14.2277 27.642 14.2277 25.6542 13.0013 24.4278C14.2277 25.6542 16.2155 25.6542 17.442 24.4278C18.668 23.2017 18.668 21.2135 17.442 19.9874C18.668 21.2135 20.6562 21.2135 21.8823 19.9874C23.1083 18.7614 23.1083 16.7732 21.8823 15.5471C23.1083 16.7732 25.0965 16.7732 26.3226 15.5471C27.549 14.3207 27.549 12.3329 26.3226 11.1064L20.0619 4.84575C18.8358 3.61971 16.8476 3.61971 15.6216 4.84575C14.3955 6.0718 14.3955 8.06002 15.6216 9.28606L16.4059 10.0707C15.1798 8.84432 13.1916 8.84432 11.9656 10.0707C10.7395 11.2968 10.7395 13.285 11.9656 14.5111L13.5346 16.08C12.3085 14.854 10.3203 14.854 9.09424 16.08C7.86782 17.3061 7.86782 19.2943 9.09424 20.5204L10.6632 22.0897C9.4368 20.8633 7.44896 20.8633 6.22254 22.0897C4.99649 23.3158 4.99649 25.3036 6.22254 26.53L8.56095 28.8681Z" fill="#00D487"/>
<path d="M27.6795 2.7656C27.8961 2.54892 28.1254 2.34979 28.3638 2.16478L27.507 1.308C27.0615 0.86206 26.3798 0.751816 25.8164 1.03334L22.2008 2.84113L24.9024 5.54308L27.6795 2.7656Z" fill="#00D487"/>
</g>
<defs>
<clipPath id="clip0_20146_39613">
<rect width="50" height="50" fill="white"/>
</clipPath>
</defs>
</svg>
