<svg width="765" height="637" viewBox="0 0 765 637" fill="none" xmlns="http://www.w3.org/2000/svg">
<path d="M175.104 636.424L146.125 480.233H192.535L209.058 574.171L249.355 480.233H288.743L305.944 574.171L345.562 480.233H391.973L324.744 636.424H276.306L260.233 552.215L223.562 636.424H175.124H175.104Z" fill="white"/>
<path d="M387.408 636.426L406.877 479.106H451.929L432.69 636.426H387.418H387.408Z" fill="white"/>
<path d="M456.664 636.426L475.903 480.015H518.458L564.639 563.315L574.828 480.015H618.741L599.731 636.426H556.497L510.776 554.934L500.587 636.426H456.674H456.664Z" fill="white"/>
<path d="M73.4418 114.646C49.0677 76.5973 25.1832 39.3076 0 0C4.20552 2.00783 6.41317 2.92684 8.48097 4.0756C28.5596 15.2236 48.6782 26.3116 68.6169 37.6893C72.6926 40.0168 75.7693 39.9369 79.785 37.5894C96.5272 27.8 113.539 18.4801 130.271 8.67064C134.347 6.28322 137.364 6.45304 141.389 8.76055C183.015 32.6048 224.811 56.1594 266.376 80.1135C269.053 81.6519 271.91 85.7275 271.92 88.6244C272.17 176.17 272.07 263.715 272 351.261C272 352.959 271.641 354.647 271.321 357.424C261.521 351.89 252.481 346.806 243.461 341.691C230.584 334.399 217.848 326.837 204.772 319.905C199.567 317.148 197.749 313.921 197.779 307.968C198.019 246.204 197.819 184.431 198.079 122.668C198.109 116.404 196.021 113.128 190.687 110.241C174.304 101.371 158.112 92.1506 142.069 82.6908C137.564 80.0336 134.187 79.9138 129.592 82.6109C111.361 93.3393 92.8611 103.618 73.4418 114.636V114.646Z" fill="#00D487"/>
<path d="M494.144 357.396C494.144 353.67 494.144 351.183 494.144 348.695C494.074 262.698 494.064 176.711 493.824 90.7138C493.804 85.1498 495.552 82.0931 500.437 79.3461C541.583 56.221 582.619 32.9062 623.516 9.36161C628.64 6.4048 632.326 6.45474 637.361 9.47149C653.564 19.151 670.176 28.1413 686.469 37.681C690.504 40.0385 693.591 39.9386 697.637 37.6311C717.126 26.4931 736.795 15.6748 756.414 4.75658C758.822 3.41802 761.269 2.16937 764.875 1.89966C740.941 39.2693 717.016 76.639 692.682 114.648C676.12 105.258 659.717 96.987 644.464 86.9479C634.374 80.315 626.583 80.0353 616.483 86.808C603.177 95.7384 588.803 103.14 574.638 110.712C569.663 113.369 568.055 116.516 568.075 122.08C568.275 183.833 568.085 245.587 568.355 307.34C568.385 313.903 566.237 317.299 560.603 320.366C540.884 331.094 521.474 342.392 501.935 353.44C499.798 354.649 497.55 355.688 494.154 357.426L494.144 357.396Z" fill="#00D487"/>
<path d="M346.731 199.456C357.72 205.67 367.789 211.104 377.558 217.027C381.624 219.495 384.731 219.355 388.727 216.928C398.486 211.014 408.536 205.57 420.073 199.027C420.073 203.172 420.073 205.8 420.073 208.427C420.073 269.661 419.983 330.885 420.223 392.118C420.243 398.072 418.495 401.388 413.221 404.036C404.57 408.381 396.468 413.825 387.778 418.08C385.17 419.359 380.835 419.339 378.238 418.04C368.898 413.366 359.807 408.131 350.977 402.547C348.679 401.099 346.302 397.603 346.292 395.045C346.042 331.264 346.102 267.483 346.122 203.702C346.122 202.723 346.392 201.744 346.731 199.456Z" fill="#00D487"/>
</svg>
