<svg width="50" height="50" viewBox="0 0 50 50" fill="none" xmlns="http://www.w3.org/2000/svg">
<path d="M48.974 0.00436401C39.2138 -0.170643 28.0828 4.93163 21.0372 12.8465C14.304 12.9736 7.74787 15.7341 2.92089 20.5614C2.63965 20.8385 2.53965 21.2531 2.66256 21.6281C2.78756 22.0052 3.11255 22.2781 3.50421 22.3344L11.5332 23.4844L10.5416 24.5949C10.1728 25.0074 10.1916 25.6345 10.5832 26.0262L23.9725 39.4163C24.1746 39.6184 24.4413 39.7204 24.71 39.7204C24.9579 39.7204 25.2058 39.6329 25.4037 39.4558L26.5141 38.4641L27.6641 46.4936C27.7203 46.8853 28.0287 47.1728 28.4016 47.2978C28.4974 47.3291 28.5974 47.3436 28.6995 47.3436C28.9953 47.3436 29.2974 47.2145 29.5057 47.0082C34.266 42.2476 37.0264 35.6911 37.1535 28.9575C45.0762 21.8969 50.2199 10.7694 49.9928 1.02107C49.9782 0.466881 49.5303 0.0189479 48.974 0.00436401ZM39.3743 17.9884C38.3597 19.003 37.0264 19.5114 35.691 19.5114C34.3556 19.5114 33.0223 19.003 32.0078 17.9884C29.9786 15.957 29.9786 12.6528 32.0078 10.6214C34.039 8.5901 37.3431 8.5901 39.3743 10.6214C41.4055 12.6528 41.4055 15.9591 39.3743 17.9884Z" fill="#00D487"/>
<path d="M5.675 35.2182C3.44588 37.4474 0.385528 47.5187 0.0438686 48.6583C-0.0665456 49.025 0.0355355 49.4229 0.30428 49.6937C0.504275 49.8937 0.768853 50 1.04176 50C1.14176 50 1.24176 49.9854 1.34176 49.9562C2.48132 49.6146 12.5519 46.554 14.781 44.3248C17.2914 41.8143 17.2914 37.7287 14.781 35.2182C12.2686 32.7077 8.18536 32.7098 5.675 35.2182Z" fill="#00D487"/>
</svg>
