<svg width="50" height="50" viewBox="0 0 50 50" fill="none" xmlns="http://www.w3.org/2000/svg">
<path fill-rule="evenodd" clip-rule="evenodd" d="M23.8095 0C36.9524 0 47.619 10.6667 47.619 23.8095C47.619 24.9728 47.5294 26.1157 47.3679 27.2345C44.872 25.1015 41.6358 23.8095 38.0952 23.8095C34.8279 23.8095 31.8176 24.9075 29.4108 26.7532C27.3669 26.2261 25.341 25.9533 23.8095 25.9533C19.0476 25.9533 9.59524 28.5487 9.52381 33.2868C12.5953 37.9054 17.8575 40.9528 23.8095 40.9528C23.9043 40.9528 23.9988 40.9451 24.0932 40.9435C24.583 43.3643 25.6891 45.5596 27.2345 47.3679C26.1157 47.5294 24.9728 47.619 23.8095 47.619C10.6667 47.619 0 36.9524 0 23.8095C0 10.6667 10.6667 0 23.8095 0ZM23.8095 7.14286C19.8571 7.14286 16.6667 10.3333 16.6667 14.2857C16.6667 18.2381 19.8571 21.4286 23.8095 21.4286C27.7619 21.4286 30.9524 18.2381 30.9524 14.2857C30.9524 10.3333 27.7619 7.14286 23.8095 7.14286Z" fill="#00D487"/>
<path fill-rule="evenodd" clip-rule="evenodd" d="M39.5993 26.705L41.1115 27.8508C41.5251 28.1641 41.9604 28.3245 42.4762 28.3536L44.3622 28.4597C45.4915 28.5233 46.4088 29.3023 46.6667 30.417L47.0975 32.2786C47.2154 32.7877 47.447 33.1938 47.8237 33.5516L49.201 34.8601C50.0257 35.6435 50.2336 36.837 49.7234 37.8588L48.8713 39.5651C48.6382 40.0318 48.5578 40.4936 48.6191 41.0128L48.8433 42.9112C48.9775 44.048 48.3788 45.0975 47.3392 45.5482L45.6027 46.3009C45.1278 46.5068 44.773 46.8082 44.4902 47.2458L43.4564 48.8459C42.8373 49.8041 41.7122 50.2185 40.6296 49.8874L38.8214 49.3343C38.3269 49.183 37.8637 49.183 37.3691 49.3343L35.561 49.8874C34.4784 50.2185 33.3533 49.8041 32.7342 48.8459L31.7003 47.2458C31.4175 46.8082 31.0627 46.5068 30.5878 46.3009L28.8513 45.5481C27.8116 45.0974 27.213 44.0479 27.3472 42.9111L27.5714 41.0127C27.6327 40.4935 27.5523 40.0317 27.3192 39.565L26.4671 37.8587C25.9569 36.837 26.1648 35.6435 26.9895 34.86L28.3668 33.5515C28.7435 33.1937 28.9751 32.7876 29.0929 32.2785L29.5237 30.4169C29.7817 29.3022 30.6989 28.5233 31.8282 28.4596L33.7142 28.3535C34.23 28.3244 34.6653 28.164 35.0789 27.8507L36.5911 26.7049C37.4965 26.019 38.6939 26.019 39.5993 26.705ZM37.1306 38.7509L35.4895 37.0898C35.0641 36.6593 34.3742 36.6593 33.9489 37.0898C33.5235 37.5204 33.5235 38.2187 33.9489 38.6492L36.3626 41.0923C36.788 41.5228 37.4779 41.5229 37.9032 41.0923C39.3581 39.6197 40.7965 38.1305 42.2447 36.6511C42.6669 36.2197 42.6656 35.5236 42.2399 35.0952C41.8142 34.6667 41.1246 34.6679 40.7018 35.1L37.1306 38.7509ZM38.0952 29.8839C35.8551 29.8839 33.8269 30.803 32.3589 32.2889C30.8908 33.7749 29.9828 35.8278 29.9828 38.0952C29.9828 40.3627 30.8908 42.4155 32.3589 43.9015C33.8269 45.3875 35.8551 46.3066 38.0952 46.3066C40.3353 46.3066 42.3635 45.3875 43.8315 43.9015C45.2996 42.4155 46.2076 40.3627 46.2076 38.0952C46.2076 35.8278 45.2996 33.7749 43.8315 32.2889C42.3635 30.803 40.3353 29.8839 38.0952 29.8839ZM43.2703 32.8569C41.9459 31.5164 40.1162 30.6872 38.0952 30.6872C36.0742 30.6872 34.2444 31.5164 32.92 32.8569C31.5956 34.1975 30.7764 36.0495 30.7764 38.0952C30.7764 40.1409 31.5956 41.9929 32.92 43.3335C34.2444 44.674 36.0742 45.5032 38.0952 45.5032C40.1162 45.5032 41.9459 44.674 43.2703 43.3335C44.5948 41.993 45.4139 40.1409 45.4139 38.0953C45.414 36.0495 44.5948 34.1975 43.2703 32.8569Z" fill="#00D487"/>
</svg>
